<mxfile host="65bd71144e">
    <diagram id="RH61Pzz7VnUSTJp8Xh7D" name="Page-1">
        <mxGraphModel dx="2404" dy="1262" grid="1" gridSize="10" guides="1" tooltips="1" connect="1" arrows="1" fold="1" page="1" pageScale="1" pageWidth="827" pageHeight="1169" math="0" shadow="0">
            <root>
                <mxCell id="0"/>
                <mxCell id="1" style="" parent="0"/>
                <mxCell id="2" value="ACTION CN PÁROSÍTÁS ÉS AUTOMATIZÁCIÓ" style="swimlane;childLayout=stackLayout;resizeParent=1;resizeParentMax=0;startSize=20;fontSize=10.5;" parent="1" vertex="1">
                    <mxGeometry x="50" width="648" height="1290" as="geometry"/>
                </mxCell>
                <mxCell id="3" value="Bouncer" style="swimlane;startSize=20;fontSize=12;" parent="2" vertex="1">
                    <mxGeometry y="20" width="216" height="1270" as="geometry"/>
                </mxCell>
                <mxCell id="9" value="" style="edgeStyle=none;html=1;endArrow=open;endFill=0;fontSize=10.5;" parent="3" source="6" target="7" edge="1">
                    <mxGeometry relative="1" as="geometry"/>
                </mxCell>
                <mxCell id="6" value="" style="shape=waypoint;sketch=0;fillStyle=solid;size=6;pointerEvents=1;points=[];fillColor=none;resizable=0;rotatable=0;perimeter=centerPerimeter;snapToPoint=1;strokeWidth=5;fontSize=10.5;" parent="3" vertex="1">
                    <mxGeometry x="88" y="40" width="40" height="40" as="geometry"/>
                </mxCell>
                <mxCell id="7" value="&lt;font style=&quot;font-size: 10.5px&quot;&gt;Bouncer bekapcsolása, service-ek elindítása&lt;/font&gt;" style="rounded=1;whiteSpace=wrap;html=1;fontSize=10.5;fontFamily=Helvetica;spacing=4;" parent="3" vertex="1">
                    <mxGeometry x="28" y="100" width="160" height="40" as="geometry"/>
                </mxCell>
                <mxCell id="19" style="edgeStyle=orthogonalEdgeStyle;html=1;exitX=0.5;exitY=1;exitDx=0;exitDy=0;entryX=0.5;entryY=0;entryDx=0;entryDy=0;fontFamily=Helvetica;fontSize=10.5;endArrow=open;endFill=0;" parent="3" source="14" target="16" edge="1">
                    <mxGeometry relative="1" as="geometry"/>
                </mxCell>
                <mxCell id="14" value="Hitelesítési adatok kiállításának kérése gombnyomással" style="rounded=1;whiteSpace=wrap;html=1;fontSize=10.5;fontFamily=Helvetica;spacing=4;" parent="3" vertex="1">
                    <mxGeometry x="28" y="240" width="160" height="40" as="geometry"/>
                </mxCell>
                <mxCell id="20" style="edgeStyle=orthogonalEdgeStyle;html=1;exitX=0.5;exitY=1;exitDx=0;exitDy=0;entryX=0.5;entryY=0;entryDx=0;entryDy=0;fontFamily=Helvetica;fontSize=10.5;endArrow=open;endFill=0;" parent="3" source="16" target="17" edge="1">
                    <mxGeometry relative="1" as="geometry"/>
                </mxCell>
                <mxCell id="21" style="edgeStyle=orthogonalEdgeStyle;html=1;exitX=0;exitY=0.5;exitDx=0;exitDy=0;entryX=0;entryY=0.5;entryDx=0;entryDy=0;fontFamily=Helvetica;fontSize=10.5;endArrow=open;endFill=0;" parent="3" source="16" target="14" edge="1">
                    <mxGeometry relative="1" as="geometry">
                        <Array as="points">
                            <mxPoint x="10" y="330"/>
                            <mxPoint x="10" y="260"/>
                        </Array>
                    </mxGeometry>
                </mxCell>
                <mxCell id="16" value="" style="rhombus;whiteSpace=wrap;html=1;fontFamily=Helvetica;fontSize=10.5;strokeWidth=1;" parent="3" vertex="1">
                    <mxGeometry x="98" y="320" width="20" height="20" as="geometry"/>
                </mxCell>
                <mxCell id="26" value="" style="edgeStyle=orthogonalEdgeStyle;html=1;fontFamily=Helvetica;fontSize=10.5;fontColor=#000000;endArrow=open;endFill=0;" parent="3" source="17" target="25" edge="1">
                    <mxGeometry relative="1" as="geometry"/>
                </mxCell>
                <mxCell id="17" value="Hitelesítő adatok írása RFID-tagre" style="rounded=1;whiteSpace=wrap;html=1;fontSize=10.5;fontFamily=Helvetica;spacing=4;" parent="3" vertex="1">
                    <mxGeometry x="28" y="380" width="160" height="40" as="geometry"/>
                </mxCell>
                <mxCell id="27" style="edgeStyle=orthogonalEdgeStyle;html=1;exitX=0;exitY=0.5;exitDx=0;exitDy=0;fontFamily=Helvetica;fontSize=10.5;fontColor=#000000;endArrow=open;endFill=0;" parent="3" source="25" target="14" edge="1">
                    <mxGeometry relative="1" as="geometry">
                        <Array as="points">
                            <mxPoint x="-34" y="470"/>
                            <mxPoint x="-34" y="260"/>
                        </Array>
                        <mxPoint x="-94" y="285" as="targetPoint"/>
                    </mxGeometry>
                </mxCell>
                <mxCell id="25" value="" style="rhombus;whiteSpace=wrap;html=1;fontFamily=Helvetica;fontSize=10.5;strokeWidth=1;" parent="3" vertex="1">
                    <mxGeometry x="98" y="460" width="20" height="20" as="geometry"/>
                </mxCell>
                <mxCell id="55" value="" style="edgeStyle=orthogonalEdgeStyle;html=1;fontFamily=Helvetica;fontSize=10.5;fontColor=#000000;endArrow=open;endFill=0;" parent="3" source="53" target="48" edge="1">
                    <mxGeometry relative="1" as="geometry"/>
                </mxCell>
                <mxCell id="53" value="Hitelesítési igényre való várakozás" style="rounded=1;whiteSpace=wrap;html=1;fontSize=10.5;fontFamily=Helvetica;spacing=4;" parent="3" vertex="1">
                    <mxGeometry x="28" y="520" width="160" height="40" as="geometry"/>
                </mxCell>
                <mxCell id="57" value="" style="edgeStyle=orthogonalEdgeStyle;html=1;fontFamily=Helvetica;fontSize=10.5;fontColor=#000000;endArrow=open;endFill=0;" parent="3" source="48" target="56" edge="1">
                    <mxGeometry relative="1" as="geometry"/>
                </mxCell>
                <mxCell id="48" value="" style="rhombus;whiteSpace=wrap;html=1;fontFamily=Helvetica;fontSize=10.5;strokeWidth=1;" parent="3" vertex="1">
                    <mxGeometry x="98" y="600" width="20" height="20" as="geometry"/>
                </mxCell>
                <mxCell id="56" value="Új user validálása" style="rounded=1;whiteSpace=wrap;html=1;fontSize=10.5;fontFamily=Helvetica;spacing=4;" parent="3" vertex="1">
                    <mxGeometry x="28" y="660" width="160" height="40" as="geometry"/>
                </mxCell>
                <mxCell id="31" value="" style="edgeStyle=orthogonalEdgeStyle;html=1;fontFamily=Helvetica;fontSize=10.5;fontColor=#000000;endArrow=open;endFill=0;" parent="2" source="25" target="30" edge="1">
                    <mxGeometry relative="1" as="geometry"/>
                </mxCell>
                <mxCell id="4" value="Action CN" style="swimlane;startSize=20;fontSize=12;" parent="2" vertex="1">
                    <mxGeometry x="216" y="20" width="216" height="1270" as="geometry"/>
                </mxCell>
                <mxCell id="10" value="Akció típusú Client Node áram alá helyezése" style="rounded=1;whiteSpace=wrap;html=1;fontSize=10.5;spacing=4;" parent="4" vertex="1">
                    <mxGeometry x="28" y="100" width="160" height="40" as="geometry"/>
                </mxCell>
                <mxCell id="30" value="Valid hitelesítő adatok tárolása EEPROM-ban" style="rounded=1;whiteSpace=wrap;html=1;fontSize=10.5;fontFamily=Helvetica;spacing=4;" parent="4" vertex="1">
                    <mxGeometry x="28" y="450" width="160" height="40" as="geometry"/>
                </mxCell>
                <mxCell id="40" style="edgeStyle=orthogonalEdgeStyle;html=1;exitX=0.5;exitY=1;exitDx=0;exitDy=0;entryX=0.5;entryY=0;entryDx=0;entryDy=0;fontFamily=Helvetica;fontSize=10.5;fontColor=#000000;endArrow=open;endFill=0;" parent="4" source="36" target="37" edge="1">
                    <mxGeometry relative="1" as="geometry"/>
                </mxCell>
                <mxCell id="37" value="&lt;font style=&quot;font-size: 10.5px&quot;&gt;CN Fogadás/Figyelés módba állítása&lt;/font&gt;" style="rounded=1;whiteSpace=wrap;html=1;fontSize=10.5;spacing=4;" parent="4" vertex="1">
                    <mxGeometry x="28" y="240" width="160" height="40" as="geometry"/>
                </mxCell>
                <mxCell id="61" value="Client Node párosítva, használatra kész" style="rounded=1;whiteSpace=wrap;html=1;fontSize=10.5;fontFamily=Helvetica;spacing=4;" parent="4" vertex="1">
                    <mxGeometry x="28" y="660" width="160" height="40" as="geometry"/>
                </mxCell>
                <mxCell id="66" value="Akció típusú CN Fogadás módba állítása" style="rounded=1;whiteSpace=wrap;html=1;fontSize=10.5;fontFamily=Helvetica;spacing=4;" parent="4" vertex="1">
                    <mxGeometry x="28" y="730" width="160" height="40" as="geometry"/>
                </mxCell>
                <mxCell id="89" value="Visszatérés normál működési módhoz" style="rounded=1;whiteSpace=wrap;html=1;fontSize=10.5;fontFamily=Helvetica;spacing=4;" parent="4" vertex="1">
                    <mxGeometry x="28" y="1010" width="160" height="40" as="geometry"/>
                </mxCell>
                <mxCell id="102" value="" style="edgeStyle=orthogonalEdgeStyle;html=1;fontFamily=Helvetica;fontSize=10.5;fontColor=#000000;endArrow=open;endFill=0;" parent="4" source="93" target="97" edge="1">
                    <mxGeometry relative="1" as="geometry"/>
                </mxCell>
                <mxCell id="93" value="" style="rhombus;whiteSpace=wrap;html=1;fontFamily=Helvetica;fontSize=10.5;strokeWidth=1;" parent="4" vertex="1">
                    <mxGeometry x="98" y="880" width="20" height="20" as="geometry"/>
                </mxCell>
                <mxCell id="97" value="&quot;GOTCHA&quot; üzenet közzététele a trigger/{azonosító} csatornán" style="rounded=1;whiteSpace=wrap;html=1;fontSize=10.5;fontFamily=Helvetica;spacing=4;fontStyle=0" parent="4" vertex="1">
                    <mxGeometry x="28" y="940" width="160" height="40" as="geometry"/>
                </mxCell>
                <mxCell id="36" value="" style="rhombus;whiteSpace=wrap;html=1;fontFamily=Helvetica;fontSize=10.5;strokeWidth=1;" parent="4" vertex="1">
                    <mxGeometry x="98" y="180" width="20" height="20" as="geometry"/>
                </mxCell>
                <mxCell id="134" value="" style="edgeStyle=orthogonalEdgeStyle;html=1;fontFamily=Helvetica;fontSize=10.5;fontColor=#000000;endArrow=none;endFill=0;" parent="4" source="10" target="36" edge="1">
                    <mxGeometry relative="1" as="geometry">
                        <mxPoint x="410" y="130" as="sourcePoint"/>
                        <mxPoint x="410" y="180" as="targetPoint"/>
                    </mxGeometry>
                </mxCell>
                <mxCell id="140" value="" style="edgeStyle=orthogonalEdgeStyle;html=1;fontFamily=Helvetica;fontSize=10.5;fontColor=#000000;endArrow=open;endFill=0;entryX=0.5;entryY=0;entryDx=0;entryDy=0;" parent="4" source="97" target="89" edge="1">
                    <mxGeometry relative="1" as="geometry"/>
                </mxCell>
                <mxCell id="67" style="edgeStyle=orthogonalEdgeStyle;html=1;exitX=0;exitY=0.5;exitDx=0;exitDy=0;entryX=1;entryY=0.5;entryDx=0;entryDy=0;fontFamily=Helvetica;fontSize=10.5;fontColor=#000000;endArrow=open;endFill=0;" parent="2" source="64" target="66" edge="1">
                    <mxGeometry relative="1" as="geometry"/>
                </mxCell>
                <mxCell id="72" style="edgeStyle=orthogonalEdgeStyle;html=1;exitX=0.5;exitY=1;exitDx=0;exitDy=0;entryX=0;entryY=0.5;entryDx=0;entryDy=0;fontFamily=Helvetica;fontSize=10.5;fontColor=#000000;endArrow=open;endFill=0;" parent="2" source="66" target="71" edge="1">
                    <mxGeometry relative="1" as="geometry"/>
                </mxCell>
                <mxCell id="95" style="edgeStyle=orthogonalEdgeStyle;html=1;exitX=0.5;exitY=0;exitDx=0;exitDy=0;entryX=0;entryY=0.5;entryDx=0;entryDy=0;fontFamily=Helvetica;fontSize=10.5;fontColor=#000000;endArrow=open;endFill=0;" parent="2" source="93" target="71" edge="1">
                    <mxGeometry relative="1" as="geometry"/>
                </mxCell>
                <mxCell id="110" value="" style="edgeStyle=orthogonalEdgeStyle;html=1;fontFamily=Helvetica;fontSize=10.5;fontColor=#000000;endArrow=open;endFill=0;entryX=1;entryY=0.5;entryDx=0;entryDy=0;" parent="2" source="92" target="93" edge="1">
                    <mxGeometry relative="1" as="geometry">
                        <mxPoint x="366" y="1103" as="targetPoint"/>
                        <Array as="points">
                            <mxPoint x="446" y="910"/>
                            <mxPoint x="446" y="910"/>
                        </Array>
                    </mxGeometry>
                </mxCell>
                <mxCell id="112" style="edgeStyle=orthogonalEdgeStyle;html=1;exitX=1;exitY=0.5;exitDx=0;exitDy=0;entryX=0;entryY=0.5;entryDx=0;entryDy=0;fontFamily=Helvetica;fontSize=10.5;fontColor=#000000;endArrow=open;endFill=0;" parent="2" source="97" target="131" edge="1">
                    <mxGeometry relative="1" as="geometry"/>
                </mxCell>
                <mxCell id="139" style="edgeStyle=orthogonalEdgeStyle;html=1;exitX=0.5;exitY=1;exitDx=0;exitDy=0;entryX=0.25;entryY=0.5;entryDx=0;entryDy=0;entryPerimeter=0;fontFamily=Helvetica;fontSize=10.5;fontColor=#000000;endArrow=open;endFill=0;" parent="2" source="89" target="114" edge="1">
                    <mxGeometry relative="1" as="geometry"/>
                </mxCell>
                <mxCell id="5" value="Trigger CN" style="swimlane;startSize=20;fontSize=12;" parent="2" vertex="1">
                    <mxGeometry x="432" y="20" width="216" height="1270" as="geometry">
                        <mxRectangle x="240" y="20" width="30" height="460" as="alternateBounds"/>
                    </mxGeometry>
                </mxCell>
                <mxCell id="127" value="" style="ellipse;whiteSpace=wrap;html=1;aspect=fixed;labelBackgroundColor=#FFFFFF;fontFamily=Helvetica;fontSize=10.5;fontColor=#000000;strokeWidth=1;" parent="5" vertex="1">
                    <mxGeometry x="-10" y="1220" width="20" height="20" as="geometry"/>
                </mxCell>
                <mxCell id="128" value="" style="shape=waypoint;sketch=0;fillStyle=solid;size=6;pointerEvents=1;points=[];fillColor=none;resizable=0;rotatable=0;perimeter=centerPerimeter;snapToPoint=1;strokeWidth=5;fontSize=10.5;" parent="5" vertex="1">
                    <mxGeometry x="-20" y="1210" width="40" height="40" as="geometry"/>
                </mxCell>
                <mxCell id="64" value="Párosított, esemény típusú CN bekapcsolása" style="rounded=1;whiteSpace=wrap;html=1;fontSize=10.5;fontFamily=Helvetica;spacing=4;" parent="5" vertex="1">
                    <mxGeometry x="28" y="730" width="160" height="40" as="geometry"/>
                </mxCell>
                <mxCell id="135" value="" style="edgeStyle=orthogonalEdgeStyle;html=1;fontFamily=Helvetica;fontSize=10.5;fontColor=#000000;endArrow=open;endFill=0;" parent="5" source="71" target="92" edge="1">
                    <mxGeometry relative="1" as="geometry"/>
                </mxCell>
                <mxCell id="71" value="Esemény típusú CN Sugárzás módba állítása" style="rounded=1;whiteSpace=wrap;html=1;fontSize=10.5;fontFamily=Helvetica;spacing=4;" parent="5" vertex="1">
                    <mxGeometry x="28" y="800" width="160" height="40" as="geometry"/>
                </mxCell>
                <mxCell id="137" style="edgeStyle=orthogonalEdgeStyle;html=1;exitX=0.5;exitY=1;exitDx=0;exitDy=0;entryX=0.75;entryY=0.5;entryDx=0;entryDy=0;entryPerimeter=0;fontFamily=Helvetica;fontSize=10.5;fontColor=#000000;endArrow=open;endFill=0;" parent="5" source="80" target="114" edge="1">
                    <mxGeometry relative="1" as="geometry"/>
                </mxCell>
                <mxCell id="80" value="Visszatérés normál működési módhoz" style="rounded=1;whiteSpace=wrap;html=1;fontSize=10.5;fontFamily=Helvetica;spacing=4;" parent="5" vertex="1">
                    <mxGeometry x="28" y="1010" width="160" height="40" as="geometry"/>
                </mxCell>
                <mxCell id="92" value="Egyedi azonosító közzététele a config/trigger csatornán" style="rounded=1;whiteSpace=wrap;html=1;fontSize=10.5;fontFamily=Helvetica;spacing=4;" parent="5" vertex="1">
                    <mxGeometry x="28" y="870" width="160" height="40" as="geometry"/>
                </mxCell>
                <mxCell id="114" value="" style="line;strokeWidth=5;html=1;labelBackgroundColor=#FFFFFF;fontFamily=Helvetica;fontSize=10.5;fontColor=#000000;" parent="5" vertex="1">
                    <mxGeometry x="-40" y="1095" width="80" height="10" as="geometry"/>
                </mxCell>
                <mxCell id="91" value="Automatizáció sikeres, alrendszer használatra kész" style="rounded=1;whiteSpace=wrap;html=1;fontSize=10.5;fontFamily=Helvetica;spacing=4;" parent="5" vertex="1">
                    <mxGeometry x="-80" y="1150" width="160" height="40" as="geometry"/>
                </mxCell>
                <mxCell id="123" value="" style="edgeStyle=orthogonalEdgeStyle;html=1;fontFamily=Helvetica;fontSize=10.5;fontColor=#000000;endArrow=open;endFill=0;" parent="5" source="114" target="91" edge="1">
                    <mxGeometry relative="1" as="geometry"/>
                </mxCell>
                <mxCell id="132" value="" style="edgeStyle=orthogonalEdgeStyle;html=1;fontFamily=Helvetica;fontSize=10.5;fontColor=#000000;endArrow=open;endFill=0;" parent="5" source="131" target="80" edge="1">
                    <mxGeometry relative="1" as="geometry"/>
                </mxCell>
                <mxCell id="133" style="edgeStyle=orthogonalEdgeStyle;html=1;exitX=1;exitY=0.5;exitDx=0;exitDy=0;fontFamily=Helvetica;fontSize=10.5;fontColor=#000000;endArrow=open;endFill=0;entryX=1;entryY=0.5;entryDx=0;entryDy=0;" parent="5" source="131" target="92" edge="1">
                    <mxGeometry relative="1" as="geometry">
                        <Array as="points">
                            <mxPoint x="204" y="960"/>
                            <mxPoint x="204" y="890"/>
                        </Array>
                        <mxPoint x="166" y="1058" as="targetPoint"/>
                    </mxGeometry>
                </mxCell>
                <mxCell id="131" value="" style="rhombus;whiteSpace=wrap;html=1;fontFamily=Helvetica;fontSize=10.5;strokeWidth=1;" parent="5" vertex="1">
                    <mxGeometry x="98" y="950" width="20" height="20" as="geometry"/>
                </mxCell>
                <mxCell id="136" value="" style="edgeStyle=orthogonalEdgeStyle;html=1;fontFamily=Helvetica;fontSize=10.5;fontColor=#000000;endArrow=open;endFill=0;entryX=0.5;entryY=0;entryDx=0;entryDy=0;" parent="5" source="92" target="131" edge="1">
                    <mxGeometry relative="1" as="geometry"/>
                </mxCell>
                <mxCell id="141" value="" style="edgeStyle=orthogonalEdgeStyle;html=1;fontFamily=Helvetica;fontSize=10.5;fontColor=#000000;endArrow=open;endFill=0;entryX=0.5;entryY=0;entryDx=0;entryDy=0;" parent="5" source="91" edge="1" target="127">
                    <mxGeometry relative="1" as="geometry">
                        <mxPoint y="1215" as="targetPoint"/>
                    </mxGeometry>
                </mxCell>
                <mxCell id="11" value="" style="edgeStyle=none;html=1;endArrow=open;endFill=0;fontSize=10.5;" parent="2" source="7" target="10" edge="1">
                    <mxGeometry relative="1" as="geometry"/>
                </mxCell>
                <mxCell id="38" style="edgeStyle=orthogonalEdgeStyle;html=1;exitX=0;exitY=0.5;exitDx=0;exitDy=0;entryX=0.5;entryY=0;entryDx=0;entryDy=0;fontFamily=Helvetica;fontSize=10.5;fontColor=#000000;endArrow=open;endFill=0;" parent="2" source="36" target="14" edge="1">
                    <mxGeometry relative="1" as="geometry"/>
                </mxCell>
                <mxCell id="42" style="edgeStyle=orthogonalEdgeStyle;html=1;exitX=0;exitY=0.5;exitDx=0;exitDy=0;entryX=1;entryY=0.5;entryDx=0;entryDy=0;fontFamily=Helvetica;fontSize=10.5;fontColor=#000000;endArrow=open;endFill=0;" parent="2" source="37" target="14" edge="1">
                    <mxGeometry relative="1" as="geometry"/>
                </mxCell>
                <mxCell id="52" style="edgeStyle=orthogonalEdgeStyle;html=1;exitX=1;exitY=0.5;exitDx=0;exitDy=0;entryX=1;entryY=0.5;entryDx=0;entryDy=0;fontFamily=Helvetica;fontSize=10.5;fontColor=#000000;endArrow=open;endFill=0;" parent="2" source="48" target="37" edge="1">
                    <mxGeometry relative="1" as="geometry">
                        <Array as="points">
                            <mxPoint x="416" y="630"/>
                            <mxPoint x="416" y="280"/>
                        </Array>
                    </mxGeometry>
                </mxCell>
                <mxCell id="47" value="" style="edgeStyle=orthogonalEdgeStyle;html=1;fontFamily=Helvetica;fontSize=10.5;fontColor=#000000;endArrow=open;endFill=0;entryX=1;entryY=0.5;entryDx=0;entryDy=0;" parent="2" source="30" target="53" edge="1">
                    <mxGeometry relative="1" as="geometry">
                        <mxPoint x="180" y="540" as="targetPoint"/>
                        <Array as="points">
                            <mxPoint x="324" y="480"/>
                        </Array>
                    </mxGeometry>
                </mxCell>
                <mxCell id="62" value="" style="edgeStyle=orthogonalEdgeStyle;html=1;fontFamily=Helvetica;fontSize=10.5;fontColor=#000000;endArrow=open;endFill=0;" parent="2" source="56" target="61" edge="1">
                    <mxGeometry relative="1" as="geometry"/>
                </mxCell>
                <mxCell id="65" value="" style="edgeStyle=orthogonalEdgeStyle;html=1;fontFamily=Helvetica;fontSize=10.5;fontColor=#000000;endArrow=open;endFill=0;" parent="2" source="61" target="64" edge="1">
                    <mxGeometry relative="1" as="geometry"/>
                </mxCell>
                <mxCell id="190" value="CN elkapta az azonosítót" style="text;html=1;strokeColor=none;fillColor=#CCCCCC;align=center;verticalAlign=middle;whiteSpace=wrap;rounded=1;fontFamily=Helvetica;fontSize=9;labelBackgroundColor=none;fontColor=#000000;glass=0;shadow=0;sketch=0;" vertex="1" parent="1">
                    <mxGeometry x="314" y="925" width="120" height="20" as="geometry"/>
                </mxCell>
                <mxCell id="191" value="CN nem fogadta az azonosítót 10 közzétételen belül" style="text;html=1;strokeColor=none;fillColor=#CCCCCC;align=center;verticalAlign=middle;whiteSpace=wrap;rounded=1;fontFamily=Helvetica;fontSize=9;labelBackgroundColor=none;fontColor=#000000;glass=0;shadow=0;sketch=0;" vertex="1" parent="1">
                    <mxGeometry x="314" y="855" width="120" height="40" as="geometry"/>
                </mxCell>
                <mxCell id="192" value="&quot;GOTCHA&quot; visszajelzés fogadása sikeres" style="text;html=1;strokeColor=none;fillColor=#CCCCCC;align=center;verticalAlign=middle;whiteSpace=wrap;rounded=1;fontFamily=Helvetica;fontSize=9;labelBackgroundColor=none;fontColor=#000000;glass=0;shadow=0;sketch=0;" vertex="1" parent="1">
                    <mxGeometry x="530" y="995" width="120" height="20" as="geometry"/>
                </mxCell>
                <mxCell id="193" value="Visszajelzés nem érkezik meg az akció node-tól" style="text;html=1;strokeColor=none;fillColor=#CCCCCC;align=center;verticalAlign=middle;whiteSpace=wrap;rounded=1;fontFamily=Helvetica;fontSize=9;labelBackgroundColor=none;fontColor=#000000;glass=0;shadow=0;sketch=0;" vertex="1" parent="1">
                    <mxGeometry x="606" y="945" width="120" height="20" as="geometry"/>
                </mxCell>
                <mxCell id="194" value="RFID-tag érintése 10 mp-en belül nem történt meg" style="text;html=1;strokeColor=none;fillColor=#CCCCCC;align=center;verticalAlign=middle;whiteSpace=wrap;rounded=1;fontFamily=Helvetica;fontSize=9;labelBackgroundColor=none;fontColor=#000000;glass=0;shadow=0;sketch=0;" vertex="1" parent="1">
                    <mxGeometry x="26" y="315" width="120" height="20" as="geometry"/>
                </mxCell>
                <mxCell id="195" value="CN fogad, vagy figyel" style="text;html=1;strokeColor=none;fillColor=#CCCCCC;align=center;verticalAlign=middle;whiteSpace=wrap;rounded=1;fontFamily=Helvetica;fontSize=9;labelBackgroundColor=none;fontColor=#000000;glass=0;shadow=0;sketch=0;" vertex="1" parent="1">
                    <mxGeometry x="98" y="225" width="120" height="20" as="geometry"/>
                </mxCell>
                <mxCell id="196" value="Hitelesítési igény nem érkezik meg 20 mp-en belül" style="text;html=1;strokeColor=none;fillColor=#CCCCCC;align=center;verticalAlign=middle;whiteSpace=wrap;rounded=1;fontFamily=Helvetica;fontSize=9;labelBackgroundColor=none;fontColor=#000000;glass=0;shadow=0;sketch=0;container=0;" vertex="1" parent="1">
                    <mxGeometry x="314" y="620" width="120" height="20" as="geometry"/>
                </mxCell>
                <mxCell id="197" value="CN nem Fogadás vagy Figyelés üzemmódban van" style="text;html=1;strokeColor=none;fillColor=#CCCCCC;align=center;verticalAlign=middle;whiteSpace=wrap;rounded=1;fontFamily=Helvetica;fontSize=9;labelBackgroundColor=none;fontColor=#000000;glass=0;shadow=0;sketch=0;" vertex="1" parent="1">
                    <mxGeometry x="314" y="225" width="120" height="20" as="geometry"/>
                </mxCell>
                <mxCell id="198" value="RFID-tag érintése megtörtént" style="text;html=1;strokeColor=none;fillColor=#CCCCCC;align=center;verticalAlign=middle;whiteSpace=wrap;rounded=1;fontFamily=Helvetica;fontSize=9;labelBackgroundColor=none;fontColor=#000000;glass=0;shadow=0;sketch=0;" vertex="1" parent="1">
                    <mxGeometry x="98" y="365" width="120" height="20" as="geometry"/>
                </mxCell>
                <mxCell id="199" value="Hitelesítés OK" style="text;html=1;strokeColor=none;fillColor=#CCCCCC;align=center;verticalAlign=middle;whiteSpace=wrap;rounded=1;fontFamily=Helvetica;fontSize=9;labelBackgroundColor=none;fontColor=#000000;glass=0;shadow=0;sketch=0;" vertex="1" parent="1">
                    <mxGeometry x="98" y="645" width="120" height="20" as="geometry"/>
                </mxCell>
                <mxCell id="200" value="Sikertelen írás; lezárt, vagy hibás kártya, folyamat" style="text;html=1;strokeColor=none;fillColor=#CCCCCC;align=center;verticalAlign=middle;whiteSpace=wrap;rounded=1;fontFamily=Helvetica;fontSize=9;labelBackgroundColor=none;fontColor=#000000;glass=0;shadow=0;sketch=0;" vertex="1" parent="1">
                    <mxGeometry x="26" y="480" width="120" height="20" as="geometry"/>
                </mxCell>
                <mxCell id="202" value="" style="endArrow=none;dashed=1;html=1;fontFamily=Helvetica;fontSize=10.5;fontColor=#000000;" edge="1" parent="1">
                    <mxGeometry width="50" height="50" relative="1" as="geometry">
                        <mxPoint y="735" as="sourcePoint"/>
                        <mxPoint x="748" y="735" as="targetPoint"/>
                    </mxGeometry>
                </mxCell>
                <mxCell id="281" value="Blanket" parent="0"/>
                <mxCell id="282" value="" style="rounded=0;whiteSpace=wrap;html=1;labelBackgroundColor=#FFFFFF;fontFamily=Helvetica;fontSize=9;fontColor=#000000;strokeWidth=1;fillColor=none;strokeColor=none;" vertex="1" parent="281">
                    <mxGeometry width="748" height="1290" as="geometry"/>
                </mxCell>
            </root>
        </mxGraphModel>
    </diagram>
</mxfile>